<svg xmlns="http://www.w3.org/2000/svg" id="svg4" width="32" height="32" version="1.1">
 <path id="path817" style="opacity:0.2;fill:#000000;fill-opacity:1;stroke-width:2" d="m 19,3 c -3.28,0 -6,2.7 -6,6 v 14 h 4 V 9 c 0,-2 2,-2 2,-2 0,0 2,0 2,2 v 13 c 0,2.78 -2.22,5 -5,5 -2.78,0 -5,-2.22 -5,-5 V 11 H 7 v 11 c 0,4.94 4.06,9 9,9 4.94,0 9,-4.06 9,-9 V 9 C 25,5.7 22.28,3 19,3 Z"/>
 <path id="path2" style="fill:#7e57c6;stroke-width:2;fill-opacity:1" d="m 19,2 c -3.28,0 -6,2.7 -6,6 v 14 h 4 V 8 c 0,-2 2,-2 2,-2 0,0 2,0 2,2 v 13 c 0,2.78 -2.22,5 -5,5 -2.78,0 -5,-2.22 -5,-5 V 10 H 7 v 11 c 0,4.94 4.06,9 9,9 4.94,0 9,-4.06 9,-9 V 8 C 25,4.7 22.28,2 19,2 Z"/>
 <path id="path819" style="fill:#ffffff;stroke-width:2;fill-opacity:1;opacity:0.2" d="M 19 2 C 15.72 2 13 4.7 13 8 L 13 9 C 13 5.7 15.72 3 19 3 C 22.28 3 25 5.7 25 9 L 25 8 C 25 4.7 22.28 2 19 2 z M 7 10 L 7 11 L 11 11 L 11 10 L 7 10 z M 11 21 L 11 22 C 11 24.78 13.22 27 16 27 C 18.78 27 21 24.78 21 22 L 21 21 C 21 23.78 18.78 26 16 26 C 13.22 26 11 23.78 11 21 z"/>
</svg>
