<svg xmlns="http://www.w3.org/2000/svg" width="16" height="16" version="1.1">
 <path fill="context-fill" fill-opacity="context-fill-opacity" d="M 8 0 C 8 0 6 0 6 2 L 2 2 C 2 2 1 2 1 3 L 1 14 C 1 15 2 15 2 15 L 8 15 L 14 15 C 14 15 15 15 15 14 L 15 3 C 15 2 14 2 14 2 L 10 2 C 10 0 8 0 8 0 z M 8 1 A 1 1 0 0 1 9 2 A 1 1 0 0 1 8 3 A 1 1 0 0 1 7 2 A 1 1 0 0 1 8 1 z M 4 5 L 8 5 L 12 5 L 12 6 L 8 6 L 4 6 L 4 5 z M 4 8 L 8 8 L 12 8 L 12 9 L 8 9 L 4 9 L 4 8 z M 4 11 L 8 11 L 12 11 L 12 12 L 8 12 L 4 12 L 4 11 z"/>
</svg>
