<svg xmlns="http://www.w3.org/2000/svg" width="16" height="16" version="1.1">
 <path fill="context-fill" fill-opacity="context-fill-opacity" d="M 2,3 V 5 C 3.4980515,5 4.7132225,5.0339419 5.3476562,5.2167969 5.6648731,5.3082244 5.8061454,5.4121402 5.8730469,5.4921875 5.9399484,5.5722348 6,5.6725209 6,6 v 4 c 0,1.024684 0.716896,1.844707 1.4863281,2.25 0.7694322,0.405293 1.6452819,0.578125 2.5234379,0.679688 C 11.766077,13.132812 13.665499,13 14,13 v -2 c -0.665498,0 -2.26608,0.11611 -3.759766,-0.05664 C 9.4933916,10.856984 8.8067386,10.684222 8.4199219,10.480469 8.0331052,10.276716 8,10.223562 8,10 V 8.3886719 C 8.6437487,8.6412343 9.3103952,8.8488024 10.009766,8.9296875 11.766077,9.1328122 13.665499,9 14,9 V 7 C 13.334502,7 11.73392,7.1161103 10.240234,6.9433594 9.4933916,6.8569839 8.8067386,6.6842216 8.4199219,6.4804687 8.0331052,6.2767159 8,6.2235615 8,6 8,5.3362416 7.8100512,4.6897937 7.4082031,4.2089844 7.0063551,3.7281751 6.460126,3.4556845 5.9023437,3.2949219 4.7867793,2.9733966 3.5019455,3 2,3 Z"/>
</svg>
