<svg xmlns="http://www.w3.org/2000/svg" id="svg4336" width="16" height="16" version="1.1">
 <path id="path4344" style="fill:#dfdfdf;fill-opacity:1;stroke-width:0;stroke-miterlimit:4;stroke-dasharray:none;opacity:0.3" d="m 7.9999995,3.0000041 a 5,5 0 0 0 -5,5 5,5 0 0 0 5,4.9999999 A 5,5 0 0 0 13,8.0000041 a 5,5 0 0 0 -5.0000005,-5 z m 0,2 a 2.9999998,2.9999998 0 0 1 3.0000005,3 2.9999998,2.9999998 0 0 1 -3.0000005,2.9999999 2.9999998,2.9999998 0 0 1 -3,-2.9999999 2.9999998,2.9999998 0 0 1 3,-3 z"/>
</svg>
