<svg xmlns="http://www.w3.org/2000/svg" id="svg4" width="16" height="16" version="1.1">
 <path id="path2" style="fill:#dfdfdf;stroke-width:0.71428579;opacity:0.3" d="M 7,1 V 3 H 8.4858575 C 10.628714,3 12.057285,4.6215716 12.057285,6.8501428 12.057285,9.171571 9.2001433,10 9.2001433,10 c 0,0 1.3357137,-1.6498572 1.0285707,-2.6141422 C 9.9644282,6.578714 9.1001433,6 8.1287148,6 H 7 V 8 L 2,4.5287144 Z"/>
 <path id="path821" style="fill:#dfdfdf;stroke-width:0.71428579" d="M 9,15 V 13 H 7.5141425 C 5.371286,13 3.942715,11.378428 3.942715,9.1498572 3.942715,6.828429 6.7998567,6 6.7998567,6 6.7998567,6 5.464143,7.6498572 5.771286,8.6141422 6.0355718,9.421286 6.8998567,10 7.8712852,10 H 9 V 8 l 5,3.471286 z"/>
</svg>
