<svg xmlns="http://www.w3.org/2000/svg" id="svg18" width="32" height="32" version="1">
 <rect id="rect2" style="opacity:.2" width="6" height="11" x="13" y="20" rx="2.4" ry="2.75"/>
 <path id="path4" style="opacity:.2" d="m15.400391 2.9995288c-1.3296 0-2.400391 1.2265-2.400391 2.75v0.6699219c-1.753464 0.4963013-3.3561548 1.4204661-4.6640625 2.6894531l-0.578125-0.3320312c-1.319389-0.7617501-2.9172312-0.4483424-3.5820313 0.703125l-0.5996093 1.0390624c-0.6648 1.151468-0.1377484 2.691375 1.1816406 3.453125l0.5898437 0.339844c-0.2262103 0.87808-0.3429815 1.780762-0.3476562 2.6875 0.00324 0.90723 0.1186975 1.810574 0.34375 2.689453l-0.5859375 0.337891c-1.3193897 0.76175-1.8464406 2.301658-1.1816406 3.453125l0.5996093 1.039062c0.6648 1.151467 2.2626416 1.464875 3.5820313 0.703125l0.5878906-0.339844c1.5337623 1.492542 3.4696009 2.50526 5.5703129 2.914063l0.171875 0.236328c0.896078 1.232111 0.421017 1.425275 1.748047 1.342613l0.873046-0.05469c1.327028-0.08266 0.502614 0.05521 1.3125-1.23519l0.205078-0.326172c2.048359-0.420131 3.934539-1.41539 5.4375-2.869141l0.578126 0.332031c1.319388 0.76175 2.917231 0.448342 3.582031-0.703125l0.599609-1.039062c0.6648-1.151467 0.137749-2.691375-1.18164-3.453125l-0.589844-0.339842c0.22621-0.87808 0.342981-1.780762 0.347656-2.6875-0.0032-0.90723-0.118697-1.810574-0.34375-2.689453l0.585938-0.337891c1.319389-0.76175 1.84644-2.301657 1.18164-3.453125l-0.599609-1.0390624c-0.6648-1.1514678-2.262643-1.4648753-3.582031-0.703125l-0.587891 0.3398437c-1.305141-1.2675983-2.904321-2.1916735-4.654297-2.6894531v-0.6777344c0-1.5235-1.070791-2.75-2.400391-2.75z"/>
 <path id="path6" style="fill:#a97438;fill-opacity:1" d="M 15.400391 2 C 14.070791 2 13 3.2265 13 4.75 L 13 5.4199219 A 11 11 0 0 0 8.3359375 8.109375 L 7.7578125 7.7773438 C 6.4384235 7.0155937 4.8405813 7.3290014 4.1757812 8.4804688 L 3.5761719 9.5195312 C 2.9113719 10.670999 3.4384235 12.210906 4.7578125 12.972656 L 5.3476562 13.3125 A 11 11 0 0 0 5 16 A 11 11 0 0 0 5.34375 18.689453 L 4.7578125 19.027344 C 3.4384228 19.789094 2.9113719 21.329002 3.5761719 22.480469 L 4.1757812 23.519531 C 4.8405812 24.670998 6.4384228 24.984406 7.7578125 24.222656 L 8.3457031 23.882812 A 11 11 0 0 0 13 26.574219 L 13 27.25 C 13 28.7735 14.070791 30 15.400391 30 L 16.599609 30 C 17.929209 30 19 28.7735 19 27.25 L 19 26.560547 A 11 11 0 0 0 23.664062 23.890625 L 24.242188 24.222656 C 25.561576 24.984406 27.159419 24.670998 27.824219 23.519531 L 28.423828 22.480469 C 29.088628 21.329002 28.561577 19.789094 27.242188 19.027344 L 26.652344 18.6875 A 11 11 0 0 0 27 16 A 11 11 0 0 0 26.65625 13.310547 L 27.242188 12.972656 C 28.561577 12.210906 29.088628 10.670999 28.423828 9.5195312 L 27.824219 8.4804688 C 27.159419 7.3290009 25.561576 7.0155933 24.242188 7.7773438 L 23.654297 8.1171875 A 11 11 0 0 0 19 5.4277344 L 19 4.75 C 19 3.2265 17.929209 2 16.599609 2 L 15.400391 2 z"/>
 <path id="path16" style="fill:#ffffff;opacity:.1" d="m15.400391 2c-1.3296 0-2.400391 1.2265-2.400391 2.75v0.6699219a11 11 0 0 0-4.6640625 2.6894531l-0.578125-0.3320312c-1.319389-0.7617501-2.9172312-0.4483424-3.5820313 0.703125l-0.5996093 1.0390624c-0.2827834 0.4897958-0.33847 1.0492688-0.2207031 1.5898438 0.0467681-0.203144 0.1124087-0.402272 0.2207031-0.589844l0.5996093-1.0390622c0.6648001-1.1514675 2.2626423-1.4648752 3.5820313-0.703125l0.578125 0.3320312a11 11 0 0 1 4.6640625-2.6894531v-0.6699219c0-1.5235 1.070791-2.75 2.400391-2.75h1.199218c1.3296 0 2.400391 1.2265 2.400391 2.75v0.6777344a11 11 0 0 1 4.654297 2.6894531l0.587891-0.3398437c1.319388-0.7617503 2.917231-0.4483429 3.582031 0.703125l0.599609 1.0390622c0.108294 0.187572 0.173935 0.3867 0.220703 0.589844 0.117767-0.540575 0.062081-1.100048-0.220703-1.5898438l-0.599609-1.0390624c-0.6648-1.1514679-2.262643-1.4648753-3.582031-0.703125l-0.587891 0.3398437a11 11 0 0 0-4.654297-2.6894531v-0.6777344c0-1.5235-1.070791-2.75-2.400391-2.75h-1.199218zm-10.236328 12.207031a11 11 0 0 0-0.1640625 1.792969 11 11 0 0 0 0.0214844 0.417969 11 11 0 0 1 0.3261718-2.105469l-0.1835937-0.105469zm21.669922 0.001953-0.177734 0.101563a11 11 0 0 1 0.322266 2.271484 11 11 0 0 0 0.021484-0.582031 11 11 0 0 0-0.166016-1.791016zm-21.667968 4.582032-0.4082031 0.236328c-1.1044642 0.637662-1.6426775 1.819362-1.4023437 2.863281 0.1590929-0.730271 0.6441777-1.425554 1.4023437-1.863281l0.5859375-0.337891a11 11 0 0 1-0.1777344-0.898437zm21.669922 0.001953a11 11 0 0 1-0.183594 0.894531l0.589844 0.339844c0.758165 0.437727 1.24325 1.13301 1.402343 1.863281 0.240334-1.043919-0.29788-2.225619-1.402343-2.863281l-0.40625-0.234375z"/>
 <circle id="circle838" style="opacity:0.2;fill:#000000;fill-opacity:1;stroke:none;stroke-width:2.69263124;stroke-linecap:butt;stroke-linejoin:round;stroke-miterlimit:4;stroke-dasharray:none;stroke-opacity:1" cx="16" cy="17" r="6"/>
 <circle id="path836" style="opacity:1;fill:#ffffff;fill-opacity:1;stroke:none;stroke-width:2.69263124;stroke-linecap:butt;stroke-linejoin:round;stroke-miterlimit:4;stroke-dasharray:none;stroke-opacity:1" cx="16" cy="16" r="6"/>
</svg>
