<svg xmlns="http://www.w3.org/2000/svg" id="svg26" width="32" height="32" version="1">
 <path id="path2" style="fill:#e647ff" d="m 25.9018,25.889 c -2.7386,2.7386 -6.3214,4.1091 -9.8954,4.1114 v -14.006 z"/>
 <path id="path4" style="fill:#ff3636" d="m 6.1114,25.889 c 2.739,2.7386 6.321,4.1091 9.895,4.1114 v -14.006 z"/>
 <path id="path6" style="fill:#5964ff" d="m 25.889,25.8905 c 2.7386,-2.7386 4.109,-6.321 4.1114,-9.895 l -14.006,0 z"/>
 <path id="path8" style="fill:#53bdff" d="m 25.889,6.1004 c 2.7386,2.7386 4.109,6.321 4.1114,9.895 l -14.006,0 z"/>
 <path id="path10" style="fill:#ff7221" d="M 6.1114,25.8905 C 3.3728,23.1519 2.0024,19.5695 2,15.9955 h 14.006 z"/>
 <path id="path12" style="fill:#ffac29" d="m 6.1114,6.1004 c -2.738,2.739 -4.109,6.321 -4.111,9.895 h 14.006 z"/>
 <path id="path14" style="fill:#80ffe5" d="M 25.9018,6.1114 C 23.1632,3.3728 19.5808,2.0024 16.0068,2 l 0,14.006 z"/>
 <path id="path16" style="fill:#73ff44" d="m 6.1114,6.1114 c 2.739,-2.738 6.321,-4.109 9.895,-4.111 l 0,14.006 z"/>
 <path id="path22" fill="#fff" opacity=".2" d="m16 2a14 14 0 0 0 -14 14 14 14 0 0 0 0.0215 0.414 14 14 0 0 1 13.978 -13.414 14 14 0 0 1 13.979 13.586 14 14 0 0 0 0.021 -0.586 14 14 0 0 0 -14 -14z"/>
 <path id="path24" opacity=".2" d="m2.0215 16.414a14 14 0 0 0 -0.0215 0.586 14 14 0 0 0 14 14 14 14 0 0 0 14 -14 14 14 0 0 0 -0.02148 -0.41406 14 14 0 0 1 -13.979 13.414 14 14 0 0 1 -13.978 -13.586z"/>
</svg>
